# xmcd CD database file
#
# Track frame offsets:
#	150
#	17235
#	32617
#	53696
#	72417
#	91489
#	109337
#	124645
#	142482
#	158246
#	176180
#	193502
#	213410
#
# Disc length: 3283 seconds
#
# Revision: 0
# Processed by: cddbd v1.5.2PL0 Copyright (c) Steve Scherf et al.
# Submitted via: CDex 1.51
#
DISCID=c20cd10d
DTITLE=Fairplay - Fairplays Nr. 6
DYEAR=2009
DGENRE=Country
TTITLE0=Mit 'nem Eis auf'm Karussell
TTITLE1=Viagra fuer die Füße
TTITLE2=Drachenfliegen
TTITLE3=Es lohnt sich schon
TTITLE4=99,9
TTITLE5=Sims - Salabim
TTITLE6=Die Nadel und der Luftballon
TTITLE7=W.h.i.s.k.e.y
TTITLE8=Den Bogen raus
TTITLE9=SOS - Sommer Ohne Stress
TTITLE10=Ab dem Nächsten
TTITLE11=Zweite-Hand-Herz
TTITLE12=Der Zeichner (Instr.)
EXTD=YEAR: 2009
EXTT0=
EXTT1=
EXTT2=
EXTT3=
EXTT4=
EXTT5=
EXTT6=
EXTT7=
EXTT8=
EXTT9=
EXTT10=
EXTT11=
EXTT12=
PLAYORDER=
